<?xml version="1.0" encoding="utf-8"?>
<!-- Generator: Adobe Illustrator 26.3.1, SVG Export Plug-In . SVG Version: 6.00 Build 0)  -->
<svg version="1.1" id="Capa_1" xmlns="http://www.w3.org/2000/svg" xmlns:xlink="http://www.w3.org/1999/xlink" x="0px" y="0px"
	 viewBox="0 0 250.2 101.4" style="enable-background:new 0 0 250.2 101.4;" xml:space="preserve">
<style type="text/css">
	.st0{opacity:0.5;}
	.st1{fill:#79727C;}
	.st2{fill:#B7D9E6;}
	.st3{fill:#92C6CF;}
	.st4{fill:#29783F;}
	.st5{fill:#388A44;}
	.st6{fill:#DFEAF0;}
	.st7{fill:#274464;}
	.st8{fill:#99BAD2;}
	.st9{fill:#EBC22F;}
	.st10{fill:#E2A333;}
	.st11{fill:#27588E;}
	.st12{fill:#B8DAE7;}
	.st13{fill:#264464;}
</style>
<g class="st0">
	<circle class="st1" cx="55" cy="61.8" r="26.3"/>
	<g>
		<g>
			<path class="st2" d="M81.3,61.8c0,3.8-0.8,7.5-2.3,10.8c-0.8,1.8-1.8,3.4-2.9,4.9c-2.5,3.4-5.9,6.2-9.8,8
				c-1.7,0.8-3.6,1.5-5.5,1.9S57,88,55,88s-3.9-0.2-5.8-0.6c-0.5-0.1-1-0.2-1.4-0.4c-11-3.1-19-13.3-19-25.3
				c0-8.1,3.7-15.4,9.5-20.2c1-0.9,2.1-1.6,3.3-2.3c3.9-2.4,8.6-3.7,13.5-3.7c4.3,0,8.4,1,12,2.9c1.8,0.9,3.4,2,4.9,3.3
				C77.7,46.6,81.3,53.8,81.3,61.8L81.3,61.8z"/>
			<path class="st3" d="M60.5,87.4L60.5,87.4C58.8,87.8,56.9,88,55,88c-2,0-3.9-0.2-5.8-0.6c-0.5-0.1-1-0.2-1.4-0.4
				c-11-3.1-19-13.3-19-25.3c0-8.1,3.7-15.4,9.5-20.2c1-0.9,2.1-1.6,3.3-2.3c3.9-2.4,8.6-3.7,13.5-3.7c1.9,0,3.8,0.2,5.6,0.6
				c-2.8,0.6-5.5,1.7-7.9,3.1c-1.2,0.7-2.3,1.5-3.3,2.3C43.7,46.3,40,53.6,40,61.7c0,12,8,22.1,19,25.3C59.6,87.2,60,87.3,60.5,87.4
				L60.5,87.4z"/>
			<path class="st4" d="M28.8,61.8c0,12,8,22.1,19,25.3c2.5-3.3-9.3-5.7-9.3-11.6c0-6.1-1.1-8.4-1.6-11.1c-0.5-2.7-3.6-2-0.2-5.4
				c1-1,2.3-1.4,3.7-1.6C41.1,53,43,49,45.6,45.7c-2-1.9-4.6-3.4-7.3-4.1C32.5,46.5,28.8,53.7,28.8,61.8L28.8,61.8z"/>
			<path class="st5" d="M81.3,61.8c0,3.8-0.8,7.5-2.3,10.8c-5.7,15.5-16.5-2.8-18.3-6.5C58.6,62,78,58.6,75.5,54.9
				s-7.7,5.3-10.9,2.1c-1.3-1.3-8.6,12.6-7.7-4.8c0.4-1,3-2.5,5.6-4c2.7-1.5,0.2-10.3,1-11.2c1-1,7.4,5.4,8.5,4.8
				c2.6,2.2,4.8,4.9,6.4,8c1.4,2.7,2.3,5.6,2.7,8.7C81.2,59.6,81.3,60.7,81.3,61.8L81.3,61.8z"/>
			<path class="st4" d="M76.1,77.5c-2.5,3.4-5.9,6.2-9.8,8C67.3,79.3,72.5,78.6,76.1,77.5L76.1,77.5z"/>
			<path class="st6" d="M55,35.6c-4.9,0-9.6,1.4-13.5,3.7c1.1,1.1,4.3,1.9,8.3,2.1c1-0.8,2-1.5,3-2.1c2.4-1.4,5.1-2.5,7.9-3.1
				C58.9,35.8,57,35.6,55,35.6z"/>
			<path class="st2" d="M81.1,58.5c-1-2.4-1.6-1.2-3.3-2.8c-1.7-1.7,0.6-4.5,0.6-5.9C79.7,52.4,80.7,55.3,81.1,58.5L81.1,58.5z"/>
			<ellipse transform="matrix(0.3099 -0.9508 0.9508 0.3099 -0.3754 88.1468)" class="st5" cx="60.5" cy="44.3" rx="2.7" ry="1.3"/>
			<ellipse transform="matrix(0.2934 -0.956 0.956 0.2934 -29.6797 119.5786)" class="st5" cx="66.1" cy="79.9" rx="1.7" ry="0.8"/>
		</g>
	</g>
</g>
<g>
	<path class="st7" d="M56.9,15.8l6.2,18.3c0.9,2.6,0,5.4-2.2,7.1c-7,5.3-15.6,8.3-24.5,8.3c-2.7,0-5.1-1.7-6-4.3l-6.2-18.3
		L56.9,15.8z"/>
	<g>
		<path class="st8" d="M54.5,45.2c2.3-1.1,4.4-2.5,6.5-4.1c2.2-1.7,3-4.5,2.2-7.1L57,15.7l-11.2,3.8L54.5,45.2z"/>
		<path class="st8" d="M16.5,34.2c0.3,0.9,1.1,1.6,2.2,1.7L45,37.4c0.7,0,1.3-0.2,1.8-0.6l19.9-17.2c0.9-0.7,1-1.8,0.7-2.7l-0.5-1.5
			l-0.4,0.2c-0.4-0.2-0.8-0.4-1.3-0.4l-26.3-1.5c-0.7,0-1.3,0.2-1.8,0.6L17.2,31.5c-0.4,0.3-0.6,0.7-0.7,1.1L16,32.8L16.5,34.2
			L16.5,34.2z"/>
	</g>
	<path class="st7" d="M16.7,30c-1.7,1.5-0.8,4.3,1.5,4.4l26.3,1.5c0.7,0,1.3-0.2,1.8-0.6l19.9-17.2c1.7-1.5,0.8-4.3-1.5-4.4L40,12.3
		c-0.7,0-2.9,0-4.3,1.4L16.7,30L16.7,30z"/>
	<ellipse transform="matrix(0.9467 -0.322 0.322 0.9467 -5.5497 14.6467)" class="st9" cx="41.5" cy="24.1" rx="3.7" ry="2.1"/>
	<path class="st9" d="M28.1,34.8l12.7-11.4l1.3,1.4L29.8,35.4v9.9H28L28.1,34.8z"/>
	<path class="st9" d="M29.3,56c2.2,0,3.9,0.1,3.9-2.1s-1.8-5.8-4-5.8s-3.9,3.7-3.9,5.8C25.4,56.2,27.1,56.1,29.3,56z"/>
	<path class="st10" d="M30.7,54c0-2.2-0.7-5.8-1.4-5.8c2.2,0,3.9,3.6,4,5.8c0,2.1-1.6,2-3.6,2.1C30.2,56,30.7,55.8,30.7,54L30.7,54z
		"/>
	<circle class="st9" cx="29.2" cy="45.8" r="3"/>
	<path class="st10" d="M28.2,48.6c1.1-0.4,1.9-1.5,1.9-2.8s-0.8-2.4-2-2.8c0.3-0.1,0.6-0.2,1-0.2c1.6,0,3,1.3,3,2.9
		c0,1.6-1.3,3-2.9,3C28.9,48.8,28.6,48.7,28.2,48.6L28.2,48.6z"/>
</g>
<g>
	<g>
		<path class="st7" d="M93.6,25.7c0-2.2,0-4-0.2-5.7h3.3l0.2,3.4H97c1.1-2,3.2-3.9,6.7-3.9c2.9,0,5.1,1.8,6,4.2h0.1
			c0.6-1.1,1.5-2.1,2.4-2.7c1.2-1,2.6-1.5,4.7-1.5c2.8,0,7,1.8,7,9.2v12.5H120V29.1c0-4.1-1.5-6.5-4.6-6.5c-2.2,0-3.9,1.6-4.6,3.5
			c-0.2,0.5-0.3,1.2-0.3,1.9v13.1h-3.8V28.5c0-3.3-1.5-5.8-4.4-5.8c-2.4,0-4.1,1.9-4.8,3.9c-0.2,0.5-0.3,1.2-0.3,1.8v12.8h-3.8
			C93.6,41.2,93.6,25.7,93.6,25.7z"/>
		<path class="st7" d="M146.9,30.4c0,7.8-5.5,11.3-10.6,11.3c-5.7,0-10.1-4.2-10.1-10.9c0-7.1,4.7-11.3,10.5-11.3
			C142.7,19.5,146.9,23.9,146.9,30.4z M130.1,30.6c0,4.7,2.6,8.1,6.4,8.1c3.7,0,6.4-3.4,6.4-8.2c0-3.6-1.8-8.1-6.3-8.1
			C132,22.4,130.1,26.6,130.1,30.6z"/>
		<path class="st7" d="M168.5,30.4c0,7.8-5.5,11.3-10.6,11.3c-5.7,0-10.1-4.2-10.1-10.9c0-7.1,4.7-11.3,10.5-11.3
			C164.3,19.5,168.5,23.9,168.5,30.4z M151.6,30.6c0,4.7,2.6,8.1,6.4,8.1c3.7,0,6.4-3.4,6.4-8.2c0-3.6-1.8-8.1-6.3-8.1
			C153.7,22.4,151.6,26.6,151.6,30.6z"/>
		<path class="st7" d="M189.3,10.1v25.6c0,1.8,0,4.1,0.2,5.5H186l-0.2-3.7h-0.1c-1.1,2.4-3.8,4.1-7.2,4.1c-5.1,0-9.1-4.3-9.1-10.7
			c0-7,4.3-11.4,9.5-11.4c3.3,0,5.5,1.5,6.4,3.3h0.1V10.1H189.3z M185.4,28.6c0-0.4,0-1.1-0.2-1.6c-0.5-2.5-2.6-4.5-5.5-4.5
			c-4,0-6.3,3.5-6.3,8.2c0,4.3,2.1,7.8,6.3,7.8c2.6,0,4.9-1.7,5.6-4.6c0.1-0.5,0.2-1.1,0.2-1.7v-3.6H185.4z"/>
		<path class="st7" d="M193.2,10.1h3.9v31.1h-3.9V10.1z"/>
		<path class="st7" d="M203.3,31.2c0.1,5.2,3.4,7.3,7.3,7.3c2.7,0,4.4-0.4,5.9-1.1l0.6,2.7c-1.3,0.6-3.7,1.3-7,1.3
			c-6.5,0-10.4-4.3-10.4-10.7s3.8-11.5,10-11.5c7,0,8.7,6.1,8.7,10c0,0.8-0.1,1.4-0.1,1.8L203.3,31.2L203.3,31.2z M214.5,28.5
			c0-2.5-1-6.3-5.4-6.3c-3.9,0-5.6,3.6-5.9,6.3H214.5z"/>
	</g>
</g>
<g>
	<g>
		<path class="st11" d="M98.9,46.5c-1.7,0-3,0.6-3.9,1.8c-1,1.2-1.4,3-1.4,5.1c0,2.2,0.4,4,1.4,5.2s2.2,1.8,4,1.8
			c1.1,0,2.2-0.2,3.6-0.6v1.8c-1.1,0.4-2.3,0.7-3.9,0.7c-2.2,0-4-0.8-5.1-2.3c-1.2-1.5-1.8-3.7-1.8-6.5c0-1.8,0.3-3.3,0.9-4.6
			s1.4-2.4,2.5-3.1c1.1-0.7,2.4-1.1,3.9-1.1c1.6,0,3,0.4,4.1,1l-0.7,1.7C101.2,46.8,100,46.5,98.9,46.5z"/>
		<path class="st11" d="M119.8,62h-8.4V45h8.4v1.8h-6.6v5.5h6.3V54h-6.3v6.3h6.6V62z"/>
		<path class="st11" d="M140.7,62h-2l-8.2-14.4h-0.1c0.1,1.7,0.2,3.3,0.2,4.6v9.7H129V45h1.9l8.2,14.3h0.1c0-0.2-0.1-0.9-0.1-2
			c-0.1-1.1-0.1-1.9-0.1-2.5V45h1.7L140.7,62L140.7,62z"/>
		<path class="st11" d="M155.3,62h-1.8V46.8h-4.8V45H160v1.8h-4.8L155.3,62L155.3,62z"/>
		<path class="st11" d="M169.8,54.9V62H168V45h4.1c1.8,0,3.2,0.4,4.1,1.2s1.3,2,1.3,3.6c0,2.3-1,3.8-3,4.6l4.1,7.7h-2L173,55
			L169.8,54.9L169.8,54.9z M169.8,53.3h2.4c1.2,0,2.1-0.3,2.7-0.8c0.6-0.5,0.9-1.4,0.9-2.5s-0.3-1.9-0.9-2.5
			c-0.6-0.5-1.5-0.7-2.8-0.7h-2.3L169.8,53.3L169.8,53.3z"/>
		<path class="st11" d="M199.9,53.4c0,2.7-0.6,4.8-1.8,6.4c-1.2,1.6-2.9,2.4-5.1,2.4s-4-0.8-5.1-2.3c-1.2-1.5-1.8-3.7-1.8-6.5
			s0.6-4.9,1.8-6.4s2.9-2.3,5.1-2.3c2.2,0,3.9,0.8,5,2.4C199.3,48.6,199.9,50.7,199.9,53.4z M187.9,53.4c0,2.3,0.4,4.1,1.3,5.3
			s2.1,1.8,3.8,1.8s2.9-0.6,3.8-1.8c0.9-1.2,1.2-2.9,1.2-5.3c0-2.3-0.4-4.1-1.2-5.2c-0.9-1.1-2.1-1.8-3.8-1.8s-2.9,0.6-3.8,1.8
			C188.4,49.5,187.9,51.2,187.9,53.4z"/>
		<path class="st11" d="M217.5,57.5c0,1.5-0.4,2.6-1.4,3.5s-2.3,1.2-3.9,1.2c-1.8,0-3.2-0.3-4.1-0.8v-1.9c0.6,0.3,1.3,0.5,2,0.7
			s1.4,0.3,2.2,0.3c1.1,0,2-0.3,2.6-0.8s0.9-1.2,0.9-2.1c0-0.6-0.1-1.1-0.4-1.4c-0.2-0.4-0.5-0.7-1.1-1.1c-0.5-0.4-1.2-0.7-2.2-1.1
			c-1.4-0.5-2.4-1.2-3-2s-0.9-1.8-0.9-3.1s0.4-2.4,1.3-3.2c0.9-0.8,2-1.1,3.4-1.1c1.5,0,2.9,0.4,4.1,1l-0.5,1.8
			c-1.2-0.6-2.5-0.9-3.6-0.9c-1,0-1.7,0.3-2.2,0.7s-0.8,1.1-0.8,1.8c0,0.6,0.1,1.1,0.3,1.5s0.5,0.7,1,1.1c0.4,0.4,1.1,0.7,2.1,1.1
			c1.6,0.6,2.6,1.3,3.3,2S217.5,56.4,217.5,57.5z"/>
	</g>
</g>
<rect x="91.5" y="67.5" class="st12" width="125.7" height="20"/>
<g>
	<g>
		<path class="st13" d="M116.2,83.3c-0.5,0.3-1.6,0.5-3,0.5c-3.3,0-5.7-2.1-5.7-5.8c0-3.6,2.4-6.1,6-6.1c1.4,0,2.3,0.3,2.7,0.5
			l-0.4,1.2c-0.6-0.3-1.4-0.5-2.3-0.5c-2.7,0-4.5,1.7-4.5,4.8c0,2.8,1.6,4.6,4.4,4.6c0.9,0,1.8-0.2,2.4-0.5L116.2,83.3z"/>
		<path class="st13" d="M119.6,72.2V79c0,2.6,1.1,3.7,2.7,3.7c1.7,0,2.8-1.1,2.8-3.7v-6.8h1.5v6.7c0,3.5-1.9,5-4.4,5
			c-2.4,0-4.1-1.4-4.1-4.9v-6.8H119.6z"/>
		<path class="st13" d="M129.1,72.3c0.8-0.2,1.8-0.2,2.9-0.2c1.6,0,2.6,0.3,3.3,0.9c0.6,0.5,0.9,1.3,0.9,2.2c0,1.5-1,2.5-2.2,2.9
			v0.1c0.9,0.3,1.4,1.1,1.7,2.3c0.4,1.6,0.7,2.7,0.9,3.2h-1.5c-0.2-0.3-0.4-1.3-0.8-2.8c-0.3-1.6-1-2.2-2.3-2.2h-1.4v5h-1.5V72.3z
			 M130.6,77.6h1.5c1.6,0,2.6-0.9,2.6-2.2c0-1.5-1.1-2.1-2.7-2.2c-0.7,0-1.2,0.1-1.5,0.1V77.6z"/>
		<path class="st13" d="M138.1,81.9c0.7,0.4,1.6,0.8,2.7,0.8c1.5,0,2.4-0.8,2.4-2c0-1.1-0.6-1.7-2.2-2.3c-1.9-0.7-3-1.6-3-3.3
			c0-1.8,1.5-3.1,3.7-3.1c1.2,0,2,0.3,2.5,0.6l-0.4,1.2c-0.4-0.2-1.1-0.5-2.2-0.5c-1.6,0-2.2,0.9-2.2,1.7c0,1.1,0.7,1.6,2.3,2.2
			c2,0.8,2.9,1.7,2.9,3.4c0,1.8-1.3,3.3-4,3.3c-1.1,0-2.3-0.3-2.9-0.7L138.1,81.9z"/>
		<path class="st13" d="M156.6,77.8c0,4-2.4,6.1-5.4,6.1c-3,0-5.2-2.4-5.2-5.9c0-3.7,2.3-6.1,5.4-6.1
			C154.6,72,156.6,74.4,156.6,77.8z M147.7,78c0,2.5,1.3,4.7,3.7,4.7c2.4,0,3.7-2.2,3.7-4.8c0-2.3-1.2-4.7-3.7-4.7
			C148.9,73.2,147.7,75.5,147.7,78z"/>
		<path class="st13" d="M161.7,83.7v-0.9l1.2-1.1c2.8-2.7,4.1-4.1,4.1-5.8c0-1.1-0.5-2.2-2.2-2.2c-1,0-1.8,0.5-2.4,0.9l-0.5-1.1
			c0.8-0.6,1.9-1.1,3.1-1.1c2.4,0,3.4,1.6,3.4,3.2c0,2.1-1.5,3.7-3.8,6l-0.9,0.8v0h5v1.2H161.7z"/>
		<path class="st13" d="M170.4,83.7v-0.9l1.2-1.1c2.8-2.7,4.1-4.1,4.1-5.8c0-1.1-0.5-2.2-2.2-2.2c-1,0-1.8,0.5-2.4,0.9l-0.5-1.1
			c0.8-0.6,1.9-1.1,3.1-1.1c2.4,0,3.4,1.6,3.4,3.2c0,2.1-1.5,3.7-3.8,6l-0.9,0.8v0h5v1.2H170.4z"/>
		<path class="st13" d="M178.4,84.4l4.8-12.4h1.2l-4.8,12.4H178.4z"/>
		<path class="st13" d="M185.1,83.7v-0.9l1.2-1.1c2.8-2.7,4.1-4.1,4.1-5.8c0-1.1-0.5-2.2-2.2-2.2c-1,0-1.8,0.5-2.4,0.9l-0.5-1.1
			c0.8-0.6,1.9-1.1,3.1-1.1c2.4,0,3.4,1.6,3.4,3.2c0,2.1-1.5,3.7-3.8,6l-0.9,0.8v0h5v1.2H185.1z"/>
		<path class="st13" d="M194.2,82c0.4,0.3,1.4,0.7,2.5,0.7c1.9,0,2.5-1.2,2.5-2.2c0-1.6-1.4-2.2-2.9-2.2h-0.8v-1.1h0.8
			c1.1,0,2.5-0.6,2.5-1.9c0-0.9-0.6-1.7-2-1.7c-0.9,0-1.7,0.4-2.2,0.7l-0.4-1.1c0.6-0.4,1.7-0.9,2.9-0.9c2.2,0,3.2,1.3,3.2,2.7
			c0,1.1-0.7,2.1-2.1,2.6v0c1.4,0.3,2.5,1.3,2.5,2.9c0,1.8-1.4,3.3-4.1,3.3c-1.2,0-2.3-0.4-2.9-0.8L194.2,82z"/>
	</g>
</g>
</svg>
